<?xml version="1.0" encoding="UTF-8"?>
<svg width="700pt" height="700pt" version="1.1" viewBox="0 0 700 700" xmlns="http://www.w3.org/2000/svg" xmlns:xlink="http://www.w3.org/1999/xlink">
 <defs>
  <symbol id="s" overflow="visible">
   <path d="m1.6406-0.09375c-0.09375 0.042969-0.1875 0.074219-0.28125 0.09375-0.085937 0.019531-0.17969 0.03125-0.28125 0.03125-0.29297 0-0.52734-0.082031-0.70312-0.25-0.16797-0.16406-0.25-0.39062-0.25-0.67188s0.082031-0.50391 0.25-0.67188c0.17578-0.16406 0.41016-0.25 0.70312-0.25 0.10156 0 0.19531 0.011719 0.28125 0.03125 0.09375 0.023438 0.1875 0.058594 0.28125 0.10938v0.35938c-0.09375-0.050781-0.18359-0.09375-0.26562-0.125-0.074219-0.03125-0.15625-0.046875-0.25-0.046875-0.16797 0-0.29688 0.058594-0.39062 0.17188-0.09375 0.10547-0.14062 0.24609-0.14062 0.42188 0 0.1875 0.046875 0.33594 0.14062 0.4375 0.09375 0.10547 0.22266 0.15625 0.39062 0.15625 0.09375 0 0.17578-0.007813 0.25-0.03125 0.082031-0.03125 0.17188-0.078125 0.26562-0.14062z"/>
  </symbol>
  <symbol id="c" overflow="visible">
   <path d="m1.1875-0.96875c-0.03125-0.019531-0.070312-0.03125-0.10938-0.03125-0.03125-0.007812-0.070313-0.015625-0.10938-0.015625-0.10547 0-0.1875 0.039063-0.25 0.10938-0.0625 0.0625-0.09375 0.16406-0.09375 0.29688v0.60938h-0.42188v-1.3281h0.42188v0.21875c0.0625-0.09375 0.125-0.15625 0.1875-0.1875 0.070312-0.039063 0.16016-0.0625 0.26562-0.0625h0.03125 0.078125z"/>
  </symbol>
  <symbol id="a" overflow="visible">
   <path d="m1.5312-0.67188v0.125h-0.98438c0 0.09375 0.03125 0.16797 0.09375 0.21875 0.0625 0.054687 0.14844 0.078125 0.26562 0.078125 0.09375 0 0.1875-0.007812 0.28125-0.03125 0.09375-0.03125 0.1875-0.070312 0.28125-0.125v0.32812c-0.09375 0.03125-0.19531 0.058594-0.29688 0.078125-0.10547 0.019531-0.20312 0.03125-0.29688 0.03125-0.25 0-0.44531-0.054688-0.57812-0.17188-0.125-0.125-0.1875-0.30078-0.1875-0.53125 0-0.20703 0.0625-0.375 0.1875-0.5 0.13281-0.125 0.31641-0.1875 0.54688-0.1875 0.20703 0 0.375 0.0625 0.5 0.1875s0.1875 0.29297 0.1875 0.5zm-0.4375-0.14062c0-0.082031-0.027344-0.14453-0.078125-0.1875-0.042969-0.050781-0.10156-0.078125-0.17188-0.078125-0.085938 0-0.15234 0.027344-0.20312 0.078125-0.054687 0.042969-0.085937 0.10547-0.09375 0.1875z"/>
  </symbol>
  <symbol id="j" overflow="visible">
   <path d="m0.79688-0.59375c-0.085937 0-0.15234 0.015625-0.20312 0.046875-0.042969 0.023437-0.0625 0.0625-0.0625 0.125 0 0.054687 0.015625 0.09375 0.046875 0.125 0.039063 0.03125 0.09375 0.046875 0.15625 0.046875 0.082031 0 0.14844-0.023438 0.20312-0.078125 0.0625-0.0625 0.09375-0.13281 0.09375-0.21875v-0.046875zm0.65625-0.17188v0.76562h-0.42188v-0.20312c-0.0625 0.085937-0.13281 0.14844-0.20312 0.1875-0.074219 0.03125-0.16406 0.046875-0.26562 0.046875-0.13672 0-0.24609-0.035156-0.32812-0.10938-0.085937-0.082031-0.125-0.19141-0.125-0.32812 0-0.15625 0.050781-0.26953 0.15625-0.34375 0.10156-0.070312 0.26953-0.10938 0.5-0.10938h0.26562v-0.03125c0-0.0625-0.03125-0.10938-0.09375-0.14062-0.054688-0.03125-0.13672-0.046875-0.25-0.046875-0.085938 0-0.16797 0.011719-0.25 0.03125-0.074219 0.011719-0.14844 0.039063-0.21875 0.078125v-0.32812c0.09375-0.019531 0.1875-0.035156 0.28125-0.046875 0.09375-0.007812 0.17969-0.015625 0.26562-0.015625 0.25 0 0.42578 0.046875 0.53125 0.14062 0.10156 0.09375 0.15625 0.24609 0.15625 0.45312z"/>
  </symbol>
  <symbol id="b" overflow="visible">
   <path d="m0.67188-1.7188v0.39062h0.4375v0.29688h-0.4375v0.5625c0 0.0625 0.007813 0.10547 0.03125 0.125 0.03125 0.023438 0.082031 0.03125 0.15625 0.03125h0.21875v0.3125h-0.375c-0.16797 0-0.28906-0.03125-0.35938-0.09375-0.0625-0.070312-0.09375-0.19531-0.09375-0.375v-0.5625h-0.21875v-0.29688h0.21875v-0.39062z"/>
  </symbol>
  <symbol id="i" overflow="visible">
   <path d="m1.1094-1.1406v-0.71875h0.4375v1.8594h-0.4375v-0.1875c-0.054687 0.074219-0.11719 0.13281-0.1875 0.17188-0.074219 0.03125-0.15625 0.046875-0.25 0.046875-0.16797 0-0.30469-0.0625-0.40625-0.1875-0.10547-0.13281-0.15625-0.30469-0.15625-0.51562 0-0.19531 0.050781-0.35938 0.15625-0.48438 0.10156-0.13281 0.23828-0.20312 0.40625-0.20312 0.09375 0 0.17578 0.023437 0.25 0.0625 0.070313 0.03125 0.13281 0.085937 0.1875 0.15625zm-0.28125 0.85938c0.09375 0 0.16016-0.03125 0.20312-0.09375 0.050781-0.0625 0.078125-0.16016 0.078125-0.29688 0-0.125-0.027344-0.21875-0.078125-0.28125-0.042969-0.070313-0.10938-0.10938-0.20312-0.10938s-0.16797 0.039062-0.21875 0.10938c-0.042969 0.0625-0.0625 0.15625-0.0625 0.28125 0 0.13672 0.019531 0.23438 0.0625 0.29688 0.050781 0.0625 0.125 0.09375 0.21875 0.09375z"/>
  </symbol>
  <symbol id="h" overflow="visible">
   <path d="m0.92188-0.28125c0.082031 0 0.14453-0.03125 0.1875-0.09375 0.050781-0.0625 0.078125-0.16016 0.078125-0.29688 0-0.125-0.027344-0.21875-0.078125-0.28125-0.042969-0.070313-0.10547-0.10938-0.1875-0.10938-0.09375 0-0.16797 0.039062-0.21875 0.10938-0.054687 0.0625-0.078125 0.15625-0.078125 0.28125 0 0.13672 0.023438 0.23438 0.078125 0.29688 0.050781 0.0625 0.125 0.09375 0.21875 0.09375zm-0.29688-0.85938c0.0625-0.070313 0.12891-0.125 0.20312-0.15625 0.070313-0.039063 0.15625-0.0625 0.25-0.0625 0.15625 0 0.28516 0.070313 0.39062 0.20312 0.11328 0.125 0.17188 0.28906 0.17188 0.48438 0 0.21094-0.058594 0.38281-0.17188 0.51562-0.10547 0.125-0.23438 0.1875-0.39062 0.1875-0.09375 0-0.17969-0.015625-0.25-0.046875-0.074219-0.039062-0.14062-0.097656-0.20312-0.17188v0.1875h-0.42188v-1.8594h0.42188z"/>
  </symbol>
  <symbol id="g" overflow="visible">
   <path d="m0.03125-1.3281h0.42188l0.35938 0.90625 0.3125-0.90625h0.42188l-0.5625 1.4531c-0.054687 0.14453-0.12109 0.25-0.20312 0.3125-0.074219 0.0625-0.17188 0.09375-0.29688 0.09375h-0.23438v-0.28125h0.125c0.070312 0 0.125-0.015625 0.15625-0.046875 0.03125-0.023437 0.054688-0.058594 0.078125-0.10938l0.015625-0.046875z"/>
  </symbol>
  <symbol id="f" overflow="visible">
   <path d="m0.21875-1.7812h0.46875v0.6875h0.67188v-0.6875h0.45312v1.7812h-0.45312v-0.75h-0.67188v0.75h-0.46875z"/>
  </symbol>
  <symbol id="e" overflow="visible">
   <path d="m1.2812-1.2969v0.35938c-0.0625-0.039062-0.125-0.070312-0.1875-0.09375-0.054688-0.019531-0.10938-0.03125-0.17188-0.03125-0.11719 0-0.21094 0.039062-0.28125 0.10938-0.0625 0.0625-0.09375 0.15625-0.09375 0.28125s0.03125 0.22656 0.09375 0.29688c0.070313 0.074219 0.16406 0.10938 0.28125 0.10938 0.070313 0 0.13281-0.007813 0.1875-0.03125 0.0625-0.019531 0.11719-0.050781 0.17188-0.09375v0.34375c-0.0625 0.03125-0.13281 0.050781-0.20312 0.0625-0.074219 0.0078125-0.14062 0.015625-0.20312 0.015625-0.24219 0-0.42969-0.054688-0.5625-0.17188-0.13672-0.125-0.20312-0.30078-0.20312-0.53125 0-0.21875 0.066406-0.38281 0.20312-0.5 0.13281-0.125 0.32031-0.1875 0.5625-0.1875 0.070312 0 0.14062 0.007813 0.20312 0.015625 0.070313 0.011719 0.14062 0.027344 0.20312 0.046875z"/>
  </symbol>
  <symbol id="d" overflow="visible">
   <path d="m0.84375-1.0625c-0.09375 0-0.16797 0.039062-0.21875 0.10938-0.054688 0.0625-0.078125 0.15625-0.078125 0.28125 0 0.13672 0.023437 0.24219 0.078125 0.3125 0.050781 0.0625 0.125 0.09375 0.21875 0.09375s0.16016-0.03125 0.20312-0.09375c0.050781-0.070313 0.078125-0.17578 0.078125-0.3125 0-0.125-0.027344-0.21875-0.078125-0.28125-0.042969-0.070313-0.10938-0.10938-0.20312-0.10938zm0-0.29688c0.22656 0 0.40625 0.0625 0.53125 0.1875 0.125 0.11719 0.1875 0.28125 0.1875 0.5s-0.0625 0.39062-0.1875 0.51562-0.30469 0.1875-0.53125 0.1875c-0.23047 0-0.41406-0.0625-0.54688-0.1875-0.125-0.125-0.1875-0.29688-0.1875-0.51562s0.0625-0.38281 0.1875-0.5c0.13281-0.125 0.31641-0.1875 0.54688-0.1875z"/>
  </symbol>
  <symbol id="r" overflow="visible">
   <path d="m1.0781-1.8594v0.28125h-0.23438c-0.0625 0-0.10547 0.015625-0.125 0.046875-0.023438 0.023438-0.03125 0.058594-0.03125 0.10938v0.09375h0.35938v0.29688h-0.35938v1.0312h-0.42188v-1.0312h-0.21875v-0.29688h0.21875v-0.09375c0-0.14453 0.035156-0.25391 0.10938-0.32812 0.082031-0.070312 0.20703-0.10938 0.375-0.10938z"/>
  </symbol>
  <symbol id="q" overflow="visible">
   <path d="m1.4375-1.1094c0.050781-0.082031 0.11328-0.14453 0.1875-0.1875 0.082031-0.039063 0.16406-0.0625 0.25-0.0625 0.15625 0 0.26953 0.046875 0.34375 0.14062 0.082031 0.09375 0.125 0.23047 0.125 0.40625v0.8125h-0.42188v-0.6875-0.03125-0.0625c0-0.09375-0.015625-0.16016-0.046875-0.20312-0.023438-0.039063-0.0625-0.0625-0.125-0.0625-0.085938 0-0.15234 0.039063-0.20312 0.10938-0.042969 0.0625-0.0625 0.15625-0.0625 0.28125v0.65625h-0.42188v-0.6875c0-0.15625-0.015625-0.25391-0.046875-0.29688-0.023437-0.039063-0.0625-0.0625-0.125-0.0625-0.085937 0-0.15234 0.039063-0.20312 0.10938-0.042969 0.0625-0.0625 0.15625-0.0625 0.28125v0.65625h-0.42188v-1.3281h0.42188v0.1875c0.050781-0.070313 0.10938-0.125 0.17188-0.15625 0.070313-0.039063 0.14844-0.0625 0.23438-0.0625 0.09375 0 0.17578 0.023437 0.25 0.0625 0.070312 0.042969 0.125 0.10547 0.15625 0.1875z"/>
  </symbol>
  <symbol id="p" overflow="visible">
   <path d="m1.5469-0.8125v0.8125h-0.4375v-0.625c0-0.11328-0.007813-0.19141-0.015625-0.23438 0-0.039063-0.007812-0.070313-0.015625-0.09375-0.011719-0.03125-0.03125-0.050781-0.0625-0.0625-0.03125-0.019531-0.0625-0.03125-0.09375-0.03125-0.09375 0-0.16797 0.039063-0.21875 0.10938-0.054687 0.0625-0.078125 0.15625-0.078125 0.28125v0.65625h-0.42188v-1.8594h0.42188v0.71875c0.070312-0.070313 0.14062-0.125 0.20312-0.15625 0.070313-0.039063 0.15625-0.0625 0.25-0.0625 0.15625 0 0.26953 0.046875 0.34375 0.14062 0.082031 0.09375 0.125 0.23047 0.125 0.40625z"/>
  </symbol>
  <symbol id="o" overflow="visible">
   <path d="m0.21875-1.7812h0.51562l0.64062 1.2188v-1.2188h0.4375v1.7812h-0.51562l-0.64062-1.2188v1.2188h-0.4375z"/>
  </symbol>
  <symbol id="n" overflow="visible">
   <path d="m0.1875-0.51562v-0.8125h0.4375v0.125c0 0.074219-0.007812 0.16797-0.015625 0.28125v0.21875c0 0.10547 0.003906 0.18359 0.015625 0.23438 0.007812 0.042969 0.019531 0.074219 0.03125 0.09375 0.007812 0.03125 0.03125 0.058594 0.0625 0.078125 0.03125 0.011719 0.0625 0.015625 0.09375 0.015625 0.09375 0 0.16406-0.035156 0.21875-0.10938 0.050781-0.070313 0.078125-0.16406 0.078125-0.28125v-0.65625h0.42188v1.3281h-0.42188v-0.1875c-0.0625 0.074219-0.13281 0.13281-0.20312 0.17188-0.074219 0.03125-0.15625 0.046875-0.25 0.046875-0.14844 0-0.26172-0.046875-0.34375-0.14062-0.085938-0.09375-0.125-0.22656-0.125-0.40625z"/>
  </symbol>
  <symbol id="m" overflow="visible">
   <path d="m1.5469-0.8125v0.8125h-0.4375v-0.625c0-0.11328-0.007813-0.19141-0.015625-0.23438 0-0.039063-0.007812-0.070313-0.015625-0.09375-0.011719-0.03125-0.03125-0.050781-0.0625-0.0625-0.03125-0.019531-0.0625-0.03125-0.09375-0.03125-0.09375 0-0.16797 0.039063-0.21875 0.10938-0.054687 0.0625-0.078125 0.15625-0.078125 0.28125v0.65625h-0.42188v-1.3281h0.42188v0.1875c0.070312-0.070313 0.14062-0.125 0.20312-0.15625 0.070313-0.039063 0.15625-0.0625 0.25-0.0625 0.15625 0 0.26953 0.046875 0.34375 0.14062 0.082031 0.09375 0.125 0.23047 0.125 0.40625z"/>
  </symbol>
  <symbol id="l" overflow="visible">
   <path d="m0.21875-1.7812h0.76562c0.22656 0 0.39844 0.054688 0.51562 0.15625 0.125 0.10547 0.1875 0.24609 0.1875 0.42188 0 0.1875-0.0625 0.33594-0.1875 0.4375-0.11719 0.10547-0.28906 0.15625-0.51562 0.15625h-0.29688v0.60938h-0.46875zm0.46875 0.34375v0.48438h0.25c0.082031 0 0.14844-0.019531 0.20312-0.0625 0.050781-0.039063 0.078125-0.10156 0.078125-0.1875 0-0.070313-0.027344-0.12891-0.078125-0.17188-0.054687-0.039062-0.12109-0.0625-0.20312-0.0625z"/>
  </symbol>
  <symbol id="k" overflow="visible">
   <path d="m0.20312-1.3281h0.42188v1.2969c0 0.1875-0.042969 0.32812-0.125 0.42188-0.085938 0.09375-0.21094 0.14062-0.375 0.14062h-0.20312v-0.28125h0.078125c0.070312 0 0.125-0.023438 0.15625-0.0625 0.03125-0.03125 0.046875-0.10547 0.046875-0.21875zm0-0.53125h0.42188v0.35938h-0.42188z"/>
  </symbol>
 </defs>
 <g>
  <path d="m335.41 280v-280h29.188v560h-29.188z"/>
  <use x="335.40625" y="567.296875" xlink:href="#s"/>
  <use x="337.191406" y="567.296875" xlink:href="#c"/>
  <use x="338.390625" y="567.296875" xlink:href="#a"/>
  <use x="340.042969" y="567.296875" xlink:href="#j"/>
  <use x="341.683594" y="567.296875" xlink:href="#b"/>
  <use x="342.84375" y="567.296875" xlink:href="#a"/>
  <use x="344.496094" y="567.296875" xlink:href="#i"/>
  <use x="347.082031" y="567.296875" xlink:href="#h"/>
  <use x="348.824219" y="567.296875" xlink:href="#g"/>
  <use x="351.253906" y="567.296875" xlink:href="#f"/>
  <use x="353.289063" y="567.296875" xlink:href="#a"/>
  <use x="354.941406" y="567.296875" xlink:href="#e"/>
  <use x="356.382813" y="567.296875" xlink:href="#b"/>
  <use x="357.542969" y="567.296875" xlink:href="#d"/>
  <use x="359.214844" y="567.296875" xlink:href="#c"/>
  <use x="335.40625" y="569.730469" xlink:href="#r"/>
  <use x="336.464844" y="569.730469" xlink:href="#c"/>
  <use x="337.664063" y="569.730469" xlink:href="#d"/>
  <use x="339.335938" y="569.730469" xlink:href="#q"/>
  <use x="342.714844" y="569.730469" xlink:href="#b"/>
  <use x="343.878906" y="569.730469" xlink:href="#p"/>
  <use x="345.609375" y="569.730469" xlink:href="#a"/>
  <use x="348.105469" y="569.730469" xlink:href="#o"/>
  <use x="350.140625" y="569.730469" xlink:href="#d"/>
  <use x="351.8125" y="569.730469" xlink:href="#n"/>
  <use x="353.542969" y="569.730469" xlink:href="#m"/>
  <use x="356.125" y="569.730469" xlink:href="#l"/>
  <use x="357.90625" y="569.730469" xlink:href="#c"/>
  <use x="359.105469" y="569.730469" xlink:href="#d"/>
  <use x="360.777344" y="569.730469" xlink:href="#k"/>
  <use x="361.609375" y="569.730469" xlink:href="#a"/>
  <use x="363.257813" y="569.730469" xlink:href="#e"/>
  <use x="364.699219" y="569.730469" xlink:href="#b"/>
 </g>
</svg>
